<svg width="50" height="50" viewBox="0 0 50 50" fill="none" xmlns="http://www.w3.org/2000/svg">
  <circle cx="25" cy="25" r="24" fill="url(#paint0_linear)" stroke="#8B5A00" stroke-width="1"/>
  <path d="M28.75 17.5C28.75 19.5711 27.0711 21.25 25 21.25C22.9289 21.25 21.25 19.5711 21.25 17.5C21.25 15.4289 22.9289 13.75 25 13.75C27.0711 13.75 28.75 15.4289 28.75 17.5Z" fill="#FFD700"/>
  <path d="M25 36.25C27.0711 36.25 28.75 34.5711 28.75 32.5C28.75 30.4289 27.0711 28.75 25 28.75C22.9289 28.75 21.25 30.4289 21.25 32.5C21.25 34.5711 22.9289 36.25 25 36.25Z" fill="#FFD700"/>
  <path d="M21.25 25C19.1789 25 17.5 23.3211 17.5 21.25C17.5 19.1789 19.1789 17.5 21.25 17.5C23.3211 17.5 25 19.1789 25 21.25C25 23.3211 23.3211 25 21.25 25Z" fill="#FFD700"/>
  <path d="M28.75 32.5C28.75 34.5711 30.4289 36.25 32.5 36.25C34.5711 36.25 36.25 34.5711 36.25 32.5C36.25 30.4289 34.5711 28.75 32.5 28.75C30.4289 28.75 28.75 30.4289 28.75 32.5Z" fill="#FFD700"/>
  <path d="M32.5 25C30.4289 25 28.75 23.3211 28.75 21.25C28.75 19.1789 30.4289 17.5 32.5 17.5C34.5711 17.5 36.25 19.1789 36.25 21.25C36.25 23.3211 34.5711 25 32.5 25Z" fill="#FFD700"/>
  <path d="M17.5 32.5C17.5 34.5711 19.1789 36.25 21.25 36.25C23.3211 36.25 25 34.5711 25 32.5C25 30.4289 23.3211 28.75 21.25 28.75C19.1789 28.75 17.5 30.4289 17.5 32.5Z" fill="#FFD700"/>
  <path d="M25 21.25V28.75" stroke="#8B5A00" stroke-width="1.5"/>
  <path d="M24 21H27" stroke="#8B5A00" stroke-width="1.5"/>
  <path d="M24 28H27" stroke="#8B5A00" stroke-width="1.5"/>
  <defs>
    <linearGradient id="paint0_linear" x1="10" y1="10" x2="40" y2="40" gradientUnits="userSpaceOnUse">
      <stop stop-color="#FFD700"/>
      <stop offset="1" stop-color="#FFA500"/>
    </linearGradient>
  </defs>
</svg> 