<svg width="120" height="120" viewBox="0 0 120 120" fill="none" xmlns="http://www.w3.org/2000/svg">
  <!-- Robot head -->
  <ellipse cx="60" cy="60" rx="40" ry="42" fill="#1A1F44" stroke="#2D3163" stroke-width="2"/>
  
  <!-- Visor/face area -->
  <path d="M37 59C37 51.268 43.268 45 51 45H69C76.732 45 83 51.268 83 59V69C83 76.732 76.732 83 69 83H51C43.268 83 37 76.732 37 69V59Z" fill="#2A3070"/>
  
  <!-- Eyes -->
  <rect x="47" y="61" width="8" height="8" rx="1" fill="#FF0000"/>
  <rect x="65" y="61" width="8" height="8" rx="1" fill="#FF0000"/>
  
  <!-- Helmet details -->
  <path d="M40 40C40 40 45 30 60 30C75 30 80 40 80 40" stroke="#2D3163" stroke-width="2"/>
  <path d="M38 70C38 70 35 90 60 90C85 90 82 70 82 70" stroke="#2D3163" stroke-width="2"/>
  
  <!-- Antenna -->
  <rect x="58" y="15" width="4" height="15" fill="#2D3163"/>
  <circle cx="60" cy="12" r="3" fill="#2D3163"/>
  
  <!-- Blue glow at bottom -->
  <ellipse cx="60" cy="95" rx="30" ry="5" fill="#2763f8" fill-opacity="0.3"/>
</svg> 